<?xml version="1.0"?>
<svg xmlns:rdf="http://www.w3.org/1999/02/22-rdf-syntax-ns#" xmlns="http://www.w3.org/2000/svg" xmlns:cc="http://creativecommons.org/ns#" xmlns:dc="http://purl.org/dc/elements/1.1/" xmlns:svg="http://www.w3.org/2000/svg" id="svg2" viewBox="0 0 136 88" version="1.1">
  <g id="layer1" transform="translate(-176 -460.36)">
    <path id="path4055" fill-rule="evenodd" fill="#fff" transform="translate(0 92.362)" d="m251 400v4.875c0.57548 0.58981 1.2472 1.0794 2 1.4375v-6.3125h-2z"/>
    <path id="path2987" fill-rule="evenodd" fill="#808000" transform="translate(0 92.362)" d="m192 376c0 4.4183-3.5817 8-8 8s-8-3.5817-8-8 3.5817-8 8-8 8 3.5817 8 8z"/>
    <path id="path3757" fill-rule="evenodd" fill="#ff0" transform="matrix(.875 0 0 .875 23 139.36)" d="m192 376c0 4.4183-3.5817 8-8 8s-8-3.5817-8-8 3.5817-8 8-8 8 3.5817 8 8z"/>
    <path id="path3771" fill-rule="evenodd" fill="#333" d="m181.16 470.36-0.6875 0.6875c0.90482 0.90482 2.1505 1.4688 3.5312 1.4688s2.6264-0.56393 3.5312-1.4688l-0.6875-0.6875c-0.72386 0.72386-1.7392 1.1562-2.8438 1.1562s-2.1199-0.43239-2.8438-1.1562z"/>
    <path id="path3779" fill-rule="evenodd" fill="#333" transform="matrix(2 0 0 .66667 -181 219.36)" d="m181 373.5c0 0.82843-0.22386 1.5-0.5 1.5s-0.5-0.67157-0.5-1.5 0.22386-1.5 0.5-1.5 0.5 0.67157 0.5 1.5z"/>
    <path id="path3781" fill-rule="evenodd" fill="#333" transform="matrix(2 0 0 .66667 -173 219.36)" d="m181 373.5c0 0.82843-0.22386 1.5-0.5 1.5s-0.5-0.67157-0.5-1.5 0.22386-1.5 0.5-1.5 0.5 0.67157 0.5 1.5z"/>
    <path id="path3783" fill-rule="evenodd" fill="#808000" transform="translate(24 92.362)" d="m192 376c0 4.4183-3.5817 8-8 8s-8-3.5817-8-8 3.5817-8 8-8 8 3.5817 8 8z"/>
    <path id="path3785" fill-rule="evenodd" fill="#ff0" transform="matrix(.875 0 0 .875 47 139.36)" d="m192 376c0 4.4183-3.5817 8-8 8s-8-3.5817-8-8 3.5817-8 8-8 8 3.5817 8 8z"/>
    <path id="path3787" fill-rule="evenodd" fill="#333" d="m205.16 472.52-0.6875-0.6875c0.90482-0.90482 2.1505-1.4688 3.5312-1.4688s2.6264 0.56393 3.5312 1.4688l-0.6875 0.6875c-0.72386-0.72386-1.7392-1.1562-2.8438-1.1562s-2.1199 0.43239-2.8438 1.1562z"/>
    <path id="path3789" fill-rule="evenodd" fill="#333" transform="matrix(2 0 0 .66667 -157 219.36)" d="m181 373.5c0 0.82843-0.22386 1.5-0.5 1.5s-0.5-0.67157-0.5-1.5 0.22386-1.5 0.5-1.5 0.5 0.67157 0.5 1.5z"/>
    <path id="path3791" fill-rule="evenodd" fill="#333" transform="matrix(2 0 0 .66667 -149 219.36)" d="m181 373.5c0 0.82843-0.22386 1.5-0.5 1.5s-0.5-0.67157-0.5-1.5 0.22386-1.5 0.5-1.5 0.5 0.67157 0.5 1.5z"/>
    <path id="path3793" fill-rule="evenodd" fill="#808000" transform="translate(48 92.362)" d="m192 376c0 4.4183-3.5817 8-8 8s-8-3.5817-8-8 3.5817-8 8-8 8 3.5817 8 8z"/>
    <path id="path3795" fill-rule="evenodd" fill="#ff0" transform="matrix(.875 0 0 .875 71 139.36)" d="m192 376c0 4.4183-3.5817 8-8 8s-8-3.5817-8-8 3.5817-8 8-8 8 3.5817 8 8z"/>
    <path id="path3797" fill-rule="evenodd" fill="#333" transform="matrix(2 0 0 .66667 -125 219.36)" d="m181 373.5c0 0.82843-0.22386 1.5-0.5 1.5s-0.5-0.67157-0.5-1.5 0.22386-1.5 0.5-1.5 0.5 0.67157 0.5 1.5z"/>
    <path id="path3799" fill-rule="evenodd" fill="#333" transform="matrix(2 0 0 .66667 -133 219.36)" d="m181 373.5c0 0.82843-0.22386 1.5-0.5 1.5s-0.5-0.67157-0.5-1.5 0.22386-1.5 0.5-1.5 0.5 0.67157 0.5 1.5z"/>
    <g id="g3811" transform="translate(.5)" fill="#333" fill-rule="evenodd">
      <path id="path3803" d="m228 470.36c0 1.1046 0.89543 2 2 2s2-0.89543 2-2h-1c0 0.55228-0.44772 1-1 1s-1-0.44772-1-1h-1z"/>
      <path id="path3809" d="m231 470.36c0 1.1046 0.89543 2 2 2s2-0.89543 2-2h-1c0 0.55228-0.44772 1-1 1s-1-0.44772-1-1h-1z"/>
    </g>
    <path id="path3815" fill-rule="evenodd" fill="#808000" transform="translate(72 92.362)" d="m192 376c0 4.4183-3.5817 8-8 8s-8-3.5817-8-8 3.5817-8 8-8 8 3.5817 8 8z"/>
    <path id="path3817" fill-rule="evenodd" fill="#ff0" transform="matrix(.875 0 0 .875 95 139.36)" d="m192 376c0 4.4183-3.5817 8-8 8s-8-3.5817-8-8 3.5817-8 8-8 8 3.5817 8 8z"/>
    <path id="path3819" fill-rule="evenodd" fill="#333" transform="matrix(2 0 0 .66667 -101 219.36)" d="m181 373.5c0 0.82843-0.22386 1.5-0.5 1.5s-0.5-0.67157-0.5-1.5 0.22386-1.5 0.5-1.5 0.5 0.67157 0.5 1.5z"/>
    <path id="path3821" fill-rule="evenodd" fill="#333" transform="matrix(2 0 0 .66667 -109 219.36)" d="m181 373.5c0 0.82843-0.22386 1.5-0.5 1.5s-0.5-0.67157-0.5-1.5 0.22386-1.5 0.5-1.5 0.5 0.67157 0.5 1.5z"/>
    <rect id="rect3829" fill-rule="evenodd" transform="translate(0 92.362)" height="1" width="10" y="378" x="251" fill="#333"/>
    <path id="path3831" fill-rule="evenodd" fill="#808000" transform="translate(96 92.362)" d="m192 376c0 4.4183-3.5817 8-8 8s-8-3.5817-8-8 3.5817-8 8-8 8 3.5817 8 8z"/>
    <path id="path3833" fill-rule="evenodd" fill="#ff0" transform="matrix(.875 0 0 .875 119 139.36)" d="m192 376c0 4.4183-3.5817 8-8 8s-8-3.5817-8-8 3.5817-8 8-8 8 3.5817 8 8z"/>
    <path id="path3835" fill-rule="evenodd" fill="#333" transform="matrix(2 0 0 .66667 -77 219.36)" d="m181 373.5c0 0.82843-0.22386 1.5-0.5 1.5s-0.5-0.67157-0.5-1.5 0.22386-1.5 0.5-1.5 0.5 0.67157 0.5 1.5z"/>
    <path id="path3837" fill-rule="evenodd" fill="#333" transform="matrix(2 0 0 .66667 -85 219.36)" d="m181 373.5c0 0.82843-0.22386 1.5-0.5 1.5s-0.5-0.67157-0.5-1.5 0.22386-1.5 0.5-1.5 0.5 0.67157 0.5 1.5z"/>
    <path id="path3843" fill-rule="evenodd" fill="#333" transform="matrix(1 0 0 2 -18 -282.64)" d="m299 377c0 0.55228-0.44772 1-1 1s-1-0.44772-1-1 0.44772-1 1-1 1 0.44772 1 1z"/>
    <path id="path3847" fill-rule="evenodd" fill="#808000" transform="translate(120 92.362)" d="m192 376c0 4.4183-3.5817 8-8 8s-8-3.5817-8-8 3.5817-8 8-8 8 3.5817 8 8z"/>
    <path id="path3849" fill-rule="evenodd" fill="#ff0" transform="matrix(.875 0 0 .875 143 139.36)" d="m192 376c0 4.4183-3.5817 8-8 8s-8-3.5817-8-8 3.5817-8 8-8 8 3.5817 8 8z"/>
    <path id="path3851" fill-rule="evenodd" fill="#333" transform="matrix(2 0 0 .66667 -53 219.36)" d="m181 373.5c0 0.82843-0.22386 1.5-0.5 1.5s-0.5-0.67157-0.5-1.5 0.22386-1.5 0.5-1.5 0.5 0.67157 0.5 1.5z"/>
    <path id="path3853" fill-rule="evenodd" fill="#333" transform="matrix(2 0 0 .66667 -61 219.36)" d="m181 373.5c0 0.82843-0.22386 1.5-0.5 1.5s-0.5-0.67157-0.5-1.5 0.22386-1.5 0.5-1.5 0.5 0.67157 0.5 1.5z"/>
    <path id="path3857" fill-rule="evenodd" fill="#333" d="m300 470.36c0 2.2091 1.7909 4 4 4s4-1.7909 4-4h-8z"/>
    <path id="path2987-1" fill-rule="evenodd" fill="#808000" transform="translate(0 140.36)" d="m192 376c0 4.4183-3.5817 8-8 8s-8-3.5817-8-8 3.5817-8 8-8 8 3.5817 8 8z"/>
    <path id="path3757-7" fill-rule="evenodd" fill="#ff0" transform="matrix(.875 0 0 .875 23 187.36)" d="m192 376c0 4.4183-3.5817 8-8 8s-8-3.5817-8-8 3.5817-8 8-8 8 3.5817 8 8z"/>
    <path id="path3771-4" fill-rule="evenodd" fill="#333" d="m181.16 518.36-0.6875 0.6875c0.90482 0.90482 2.1505 1.4688 3.5312 1.4688s2.6264-0.56393 3.5312-1.4688l-0.6875-0.6875c-0.72386 0.72386-1.7392 1.1562-2.8438 1.1562s-2.1199-0.43239-2.8438-1.1562z"/>
    <path id="path3781-9" fill-rule="evenodd" fill="#333" transform="matrix(2 0 0 .66667 -173 267.36)" d="m181 373.5c0 0.82843-0.22386 1.5-0.5 1.5s-0.5-0.67157-0.5-1.5 0.22386-1.5 0.5-1.5 0.5 0.67157 0.5 1.5z"/>
    <rect id="rect3903" fill-rule="evenodd" height="1" width="3" y="515.86" x="179" fill="#333"/>
    <path id="path2987-1-4" fill-rule="evenodd" fill="#808000" transform="translate(24 140.36)" d="m192 376c0 4.4183-3.5817 8-8 8s-8-3.5817-8-8 3.5817-8 8-8 8 3.5817 8 8z"/>
    <path id="path3757-7-8" fill-rule="evenodd" fill="#ff0" transform="matrix(.875 0 0 .875 47 187.36)" d="m192 376c0 4.4183-3.5817 8-8 8s-8-3.5817-8-8 3.5817-8 8-8 8 3.5817 8 8z"/>
    <path id="path3771-4-8" fill-rule="evenodd" fill="#333" d="m205.16 518.36-0.6875 0.6875c0.90482 0.90482 2.1505 1.4688 3.5312 1.4688s2.6264-0.56393 3.5312-1.4688l-0.6875-0.6875c-0.72386 0.72386-1.7392 1.1562-2.8438 1.1562s-2.1199-0.43239-2.8438-1.1562z"/>
    <path id="path3937" fill-rule="evenodd" fill="#333" d="m204 514.36c-1.1046 0-2 0.89543-2 2h1c0-0.55228 0.44772-1 1-1s1 0.44772 1 1h1c0-1.1046-0.89543-2-2-2z"/>
    <path id="path3943" fill-rule="evenodd" fill="#333" d="m212 514.36c-1.1046 0-2 0.89543-2 2h1c0-0.55228 0.44772-1 1-1s1 0.44772 1 1h1c0-1.1046-0.89543-2-2-2z"/>
    <path id="path2987-5" fill-rule="evenodd" fill="#808000" transform="translate(48 140.36)" d="m192 376c0 4.4183-3.5817 8-8 8s-8-3.5817-8-8 3.5817-8 8-8 8 3.5817 8 8z"/>
    <path id="path3757-5" fill-rule="evenodd" fill="#ff0" transform="matrix(.875 0 0 .875 71 187.36)" d="m192 376c0 4.4183-3.5817 8-8 8s-8-3.5817-8-8 3.5817-8 8-8 8 3.5817 8 8z"/>
    <path id="path3771-1" fill-rule="evenodd" fill="#333" d="m229.16 518.36-0.6875 0.6875c0.90482 0.90482 2.1505 1.4688 3.5312 1.4688s2.6264-0.56393 3.5312-1.4688l-0.6875-0.6875c-0.72386 0.72386-1.7392 1.1562-2.8438 1.1562s-2.1199-0.43239-2.8438-1.1562z"/>
    <path id="path3779-7" fill-rule="evenodd" fill="#333" transform="matrix(2 0 0 .66667 -133 267.36)" d="m181 373.5c0 0.82843-0.22386 1.5-0.5 1.5s-0.5-0.67157-0.5-1.5 0.22386-1.5 0.5-1.5 0.5 0.67157 0.5 1.5z"/>
    <path id="path3781-1" fill-rule="evenodd" fill="#333" transform="matrix(2 0 0 .66667 -125 267.36)" d="m181 373.5c0 0.82843-0.22386 1.5-0.5 1.5s-0.5-0.67157-0.5-1.5 0.22386-1.5 0.5-1.5 0.5 0.67157 0.5 1.5z"/>
    <path id="path3979" fill-rule="evenodd" fill="#808000" transform="translate(72 140.36)" d="m192 376c0 4.4183-3.5817 8-8 8s-8-3.5817-8-8 3.5817-8 8-8 8 3.5817 8 8z"/>
    <path id="path3981" fill-rule="evenodd" fill="#ff0" transform="matrix(.875 0 0 .875 95 187.36)" d="m192 376c0 4.4183-3.5817 8-8 8s-8-3.5817-8-8 3.5817-8 8-8 8 3.5817 8 8z"/>
    <rect id="rect3829-2" fill-rule="evenodd" height="1" width="6" y="519.36" x="253" fill="#333"/>
    <rect id="rect4015" fill-rule="evenodd" height="1" width="3" y="516.36" x="259" fill="#333"/>
    <rect id="rect4017" fill-rule="evenodd" height="1" width="3" y="516.36" x="250" fill="#333"/>
    <path id="path4019" fill-rule="evenodd" fill="#808000" transform="translate(96 140.36)" d="m192 376c0 4.4183-3.5817 8-8 8s-8-3.5817-8-8 3.5817-8 8-8 8 3.5817 8 8z"/>
    <path id="path4021" fill-rule="evenodd" fill="#ff0" transform="matrix(.875 0 0 .875 119 187.36)" d="m192 376c0 4.4183-3.5817 8-8 8s-8-3.5817-8-8 3.5817-8 8-8 8 3.5817 8 8z"/>
    <rect id="rect4023" fill-rule="evenodd" height="1" width="4" y="518.36" x="278" fill="#333"/>
    <path id="path4029" fill-rule="evenodd" fill="#333" d="m281 515.36v1h2c0 0.55228 0.44772 1 1 1s1-0.44772 1-1v-1h-4z"/>
    <path id="path4034" fill-rule="evenodd" fill="#333" d="m275 515.36v1h2c0 0.55228 0.44772 1 1 1s1-0.44772 1-1v-1h-4z"/>
    <path id="path4036" fill-rule="evenodd" fill="#808000" d="m309.66 510.71c-3.1242-3.1242-8.1895-3.1242-11.314 0-3.1242 3.1242-3.1242 8.1895 0 11.314 3.1242 3.1242 8.1895 3.1242 11.314 0 0.24041-0.24041 0.45951-0.48967 0.66292-0.7513l-4.9056-4.9056 4.9056-4.9056c-0.20341-0.26163-0.42251-0.51089-0.66292-0.7513z"/>
    <path id="path4038" fill-rule="evenodd" fill="#ff0" d="m308.95 511.41c-2.7337-2.7337-7.1658-2.7337-9.8995 0s-2.7337 7.1658 0 9.8995 7.1658 2.7337 9.8995 0l-4.95-4.95 4.9498-4.9497z"/>
    <path id="path3779-7-7" fill-rule="evenodd" fill="#333" transform="matrix(1.4142 1.4142 -.47140 .47140 226.22 80.784)" d="m181 373.5c0 0.82843-0.22386 1.5-0.5 1.5s-0.5-0.67157-0.5-1.5 0.22386-1.5 0.5-1.5 0.5 0.67157 0.5 1.5z"/>
    <path id="path4088" fill-rule="evenodd" transform="translate(-135 140.36)" d="m447 376c0 0.55228-0.44772 1-1 1s-1-0.44772-1-1 0.44772-1 1-1 1 0.44772 1 1z"/>
    <path id="path4090" fill-rule="evenodd" transform="translate(-138 140.36)" d="m447 376c0 0.55228-0.44772 1-1 1s-1-0.44772-1-1 0.44772-1 1-1 1 0.44772 1 1z"/>
    <path id="path4019-1" fill-rule="evenodd" fill="#808000" transform="translate(0 164.36)" d="m192 376c0 4.4183-3.5817 8-8 8s-8-3.5817-8-8 3.5817-8 8-8 8 3.5817 8 8z"/>
    <path id="path4021-4" fill-rule="evenodd" fill="#ff0" transform="matrix(.875 0 0 .875 23 211.36)" d="m192 376c0 4.4183-3.5817 8-8 8s-8-3.5817-8-8 3.5817-8 8-8 8 3.5817 8 8z"/>
    <path id="path3857-2" fill-rule="evenodd" fill="#333" d="m180 541.36c0 2.2091 1.7909 4 4 4s4-1.7909 4-4h-8z"/>
    <path id="path75" style="block-progression:tb;color:#000000;text-transform:none;text-indent:0" fill="#333" d="m189.34 538.52c-1 0-2.2259 0.0384-3.3438 1.1562l0.6875 0.6875c0.88215-0.88215 1.6562-0.84375 2.6562-0.84375v-1z"/>
    <path id="path4172" style="block-progression:tb;color:#000000;text-transform:none;text-indent:0" fill="#333" d="m178.66 538.52c1 0 2.2259 0.0384 3.3438 1.1562l-0.6875 0.6875c-0.88215-0.88215-1.6562-0.84375-2.6562-0.84375v-1z"/>
    <path id="path4174" fill-rule="evenodd" fill="#808000" transform="translate(24 164.36)" d="m192 376c0 4.4183-3.5817 8-8 8s-8-3.5817-8-8 3.5817-8 8-8 8 3.5817 8 8z"/>
    <path id="path4176" fill-rule="evenodd" fill="#ff0" transform="matrix(.875 0 0 .875 47 211.36)" d="m192 376c0 4.4183-3.5817 8-8 8s-8-3.5817-8-8 3.5817-8 8-8 8 3.5817 8 8z"/>
    <path id="path3771-16" fill-rule="evenodd" fill="#333" d="m205.16 543.21-0.6875 0.6875c0.90482 0.90482 2.1505 1.4688 3.5312 1.4688s2.6264-0.56393 3.5312-1.4688l-0.6875-0.6875c-0.72386 0.72386-1.7392 1.1562-2.8438 1.1562s-2.1199-0.43239-2.8438-1.1562z"/>
    <path id="path4212" fill-rule="evenodd" fill="#818100" transform="translate(48 164.36)" d="m192 376c0 4.4183-3.5817 8-8 8s-8-3.5817-8-8 3.5817-8 8-8 8 3.5817 8 8z"/>
    <path id="path4214" fill-rule="evenodd" fill="#ff0" transform="matrix(.875 0 0 .875 71 211.36)" d="m192 376c0 4.4183-3.5817 8-8 8s-8-3.5817-8-8 3.5817-8 8-8 8 3.5817 8 8z"/>
    <path id="path3779-7-8" fill-rule="evenodd" fill="#333" transform="matrix(2 0 0 .66667 -133 291.36)" d="m181 373.5c0 0.82843-0.22386 1.5-0.5 1.5s-0.5-0.67157-0.5-1.5 0.22386-1.5 0.5-1.5 0.5 0.67157 0.5 1.5z"/>
    <path id="path3781-1-5" fill-rule="evenodd" fill="#333" transform="matrix(2 0 0 .66667 -125 291.36)" d="m181 373.5c0 0.82843-0.22386 1.5-0.5 1.5s-0.5-0.67157-0.5-1.5 0.22386-1.5 0.5-1.5 0.5 0.67157 0.5 1.5z"/>
    <path id="svg_2" stroke-width="1px" fill-rule="evenodd" d="m225.93 542.32h0.0234v0.0233h0.0234v0.0233h0.0234v0.0233h0.0234v0.0233h0.07v-0.0233l-0.0234-0.0233v-0.0466h-0.0234v-0.0233h-0.0234v-0.0233l-0.0234-0.0233-0.0234-0.0233v-0.0233t-0.0698-0.0465q-0.0466-0.0698-0.23253-0.1628-0.18604-0.093-0.39537-0.093-0.23255 0-0.37209 0.0698-0.16277 0.0698-0.34884 0.20931-0.16277 0.13954-0.32558 0.34884-0.16277 0.20929-0.23255 0.44185-0.0698 0.25581-0.0698 0.51163 0 0.27906 0.0698 0.51163 0.0698 0.2558 0.25582 0.51161 0.13953 0.25582 0.32558 0.4186 0.18606 0.1628 0.48838 0.32559 0.30231 0.18604 0.69768 0.27906 0.39535 0.13954 0.86043 0.18605 0.44188 0.0466 1.0233 0 0.60464 0 1.2558-0.13953 0.65115-0.13954 1.2093-0.32558 0.55812-0.18604 0.97673-0.4186 0.39535-0.23255 0.60465-0.4186 0.23255-0.18605 0.27907-0.2093 0.0466-0.0233 0.13953 0.0466 0.0697 0.0698 0.3721 0.30231 0.30231 0.23255 0.72089 0.4186 0.41861 0.18605 0.99999 0.3721 0.55818 0.18603 1.2558 0.30232 0.69768 0.11625 1.1628 0.13953 0.44186 0.0233 0.65115-0.0233 0.20933 0 0.65116-0.11625 0.46513-0.11626 0.79072-0.2558 0.30231-0.13954 0.5116-0.27907 0.20933-0.18605 0.3721-0.39535 0.18607-0.23256 0.27906-0.51163 0.093-0.27907 0.11626-0.5814 0.0234-0.27906-0.0234-0.4651-0.0466-0.16278-0.13954-0.39536-0.13953-0.23255-0.20928-0.30232-0.093-0.093-0.093-0.11625 0-0.0233-0.0466-0.0464-0.0466-0.0233-0.25583-0.13953-0.2093-0.11626-0.4651-0.11626-0.27906 0-0.46513 0.0698l-0.18603 0.0698v0.0233h-0.0234v0.0233h-0.0234l-0.0234 0.0233-0.0234 0.0233h-0.0234v0.0233h-0.0234v0.0466h0.0466l0.0698-0.0233h0.0468v-0.0233h0.0234v-0.0233h0.093q0.0698-0.0466 0.25578-0.0233 0.18608 0.0233 0.3256 0.11626 0.11626 0.11625 0.20933 0.27906 0.093 0.1628 0.093 0.46512 0 0.32558-0.093 0.44186-0.0698 0.11626-0.18608 0.18604-0.11625 0.0698-0.32557 0.0698-0.23255 0-0.55813-0.13953-0.34883-0.13953-0.8837-0.44184-0.55816-0.30233-1.093-0.62791-0.55813-0.32558-0.95349-0.51163-0.41862-0.18605-0.69767-0.23255-0.30232-0.093-0.67441-0.0698-0.3721 0.0233-0.72095 0.11626-0.34883 0.13953-0.60463 0.30231-0.27907 0.1628-0.30233 0.18605-0.0234 0.0233-0.27906-0.16277-0.25584-0.18606-0.60463-0.27908-0.34883-0.13953-0.51166-0.13953-0.16277-0.0466-0.58137-0.0233-0.41863 0.0233-0.7442 0.093-0.30231 0.0698-0.74419 0.30231-0.44184 0.23257-1.2791 0.7907-0.83719 0.55813-1.1395 0.65116-0.27909 0.13954-0.53491 0.13954-0.2558 0-0.44186-0.093-0.18604-0.093-0.27907-0.18603-0.093-0.11626-0.093-0.39535 0-0.27907 0.093-0.44185 0.093-0.1628 0.20933-0.27908 0.11625-0.093 0.20929-0.13954 0.11625-0.0466 0.27905-0.0466 0.13953 0 0.23255 0.0698 0.0698 0.0698 0.093 0.0698z"/>
    <path id="path3845" d="m181 373.5c0 0.82843-0.22386 1.5-0.5 1.5s-0.5-0.67157-0.5-1.5 0.22386-1.5 0.5-1.5 0.5 0.67157 0.5 1.5z" fill-opacity=".75" fill-rule="evenodd" transform="matrix(3 0 0 .33333 -304.5 393.36)" fill="#ff0240"/>
    <path id="path3975" d="m181 373.5c0 0.82843-0.22386 1.5-0.5 1.5s-0.5-0.67157-0.5-1.5 0.22386-1.5 0.5-1.5 0.5 0.67157 0.5 1.5z" fill-opacity=".75" fill-rule="evenodd" transform="matrix(3 0 0 .33333 -314.5 393.36)" fill="#ff0240"/>
    <path id="path3923" d="m212.75 537.64c-1.2993 0.009-2.5514 0.40788-3.8266 0.56756-0.53228 0.0667-1.0809 0.083-1.614 0.021-0.70886-0.0824-1.3952-0.3013-2.1036-0.3994-0.63308-0.0877-1.2741-0.1792-1.9112-0.18288-1.1133-0.006-2.1901 0.33631-3.2815 0.52132 0 0.31395-0.0648 0.7169 0.0983 0.93754 0.16831 0.22759 0.45224 0.43574 0.5259 0.74415 0.17466 0.73141 0.42263 1.4484 0.73967 2.1358 0.15408 0.33401 0.44489 0.56691 0.76961 0.72732 0.78195 0.38631 1.7075 0.4431 2.5654 0.32162 1.2216-0.17298 1.8844-1.0743 2.39-2.1042 0.18928-0.41863 0.21038-0.90178 0.45964-1.2844 0.14804-0.22726 0.49182-0.13159 0.73753-0.13245 0.24571-0.00082 0.45393 0.40101 0.53016 0.66849 0.26986 0.94659 0.71983 1.9508 1.614 2.4468 1.3354 0.74067 3.4391 0.60211 4.3055-0.73365 0.33907-0.52274 0.43273-1.1571 0.60286-1.7489 0.10355-0.36032 0.19608-0.78989 0.56438-0.98798 0.14864-0.08 0.0443-0.39896 0.0663-0.58438 0.0239-0.20206 0.07-0.38074-0.22233-0.42043-0.50992-0.0693-1.0045-0.27978-1.5264-0.35106-0.49455-0.0675-0.97909-0.16518-1.4836-0.16186z"/>
    <path id="path3921" d="m204.16 537.99c-0.36882 0.002-0.72996 0.0223-1.0938 0.0625-0.79285 0.0877-1.915 0.22486-1.9688 1.1875-0.0402 0.71882 0.14035 1.4411 0.375 2.125 0.22234 0.64802 0.68559 1.1202 1.375 1.2812 1.4955 0.34941 3.0023-0.011 3.7188-1.4688 0.87928-1.789 0.82338-2.6495-1.3125-3.0938-0.35848-0.0746-0.72493-0.0958-1.0938-0.0937zm7.25 0c-0.18273 0.0157-0.352 0.0564-0.53125 0.0937-2.1359 0.44424-2.1918 1.3048-1.3125 3.0938 0.71648 1.4578 2.192 1.8182 3.6875 1.4688 0.6894-0.16106 1.1839-0.63323 1.4062-1.2812 0.23467-0.68393 0.4152-1.4062 0.375-2.125-0.0538-0.96264-1.1759-1.0998-1.9688-1.1875-0.36382-0.0403-0.72494-0.0605-1.0938-0.0625-0.18441-0.001-0.37977-0.0157-0.5625 0z" fill="#333"/>
    <path id="path3900" fill-rule="evenodd" fill="#808000" transform="translate(72 164.36)" d="m192 376c0 4.4183-3.5817 8-8 8s-8-3.5817-8-8 3.5817-8 8-8 8 3.5817 8 8z"/>
    <path id="path3902" fill-rule="evenodd" fill="#ff0" transform="matrix(.875 0 0 .875 95 211.36)" d="m192 376c0 4.4183-3.5817 8-8 8s-8-3.5817-8-8 3.5817-8 8-8 8 3.5817 8 8z"/>
    <path id="path3914" fill-rule="evenodd" fill="#333" transform="matrix(2 0 0 .66667 -109 291.36)" d="m181 373.5c0 0.82843-0.22386 1.5-0.5 1.5s-0.5-0.67157-0.5-1.5 0.22386-1.5 0.5-1.5 0.5 0.67157 0.5 1.5z"/>
    <path id="path3904" fill-rule="evenodd" fill="#333" d="m253.16 543.21-0.6875 0.6875c0.90482 0.90482 2.1505 1.4688 3.5312 1.4688s2.6264-0.56393 3.5312-1.4688l-0.6875-0.6875c-0.72386 0.72386-1.7392 1.1562-2.8438 1.1562s-2.1199-0.43239-2.8438-1.1562z"/>
    <path id="path3916" fill-rule="evenodd" fill="#333" transform="matrix(2 0 0 .66667 -101 291.36)" d="m181 373.5c0 0.82843-0.22386 1.5-0.5 1.5s-0.5-0.67157-0.5-1.5 0.22386-1.5 0.5-1.5 0.5 0.67157 0.5 1.5z"/>
    <g id="g3906" stroke="#000" stroke-width="19.932" transform="matrix(.025108 0 0 .025061 239.51 524.75)">
      <path id="path3908" stroke="#000" stroke-width="19.932" d="m839.97 521.54c-50.129 0.329-98.438 15.737-147.64 21.898-20.537 2.572-41.703 3.203-62.274 0.81101-27.35-3.179-53.83-11.625-81.162-15.41-24.426-3.382-49.159-6.914-73.739-7.056-42.954-0.248-84.499 12.976-126.61 20.114 0 12.113-2.5017 27.66 3.7942 36.173 6.4938 8.781 17.449 16.812 20.29 28.711 6.7391 28.22 16.306 55.883 28.539 82.403 5.9446 12.887 17.165 21.873 29.693 28.062 30.17 14.905 65.879 17.096 98.979 12.409 47.134-6.674 72.705-41.451 92.214-81.186 7.303-16.152 8.117-34.793 17.734-49.555 5.712-8.768 18.976-5.077 28.456-5.11 9.48-0.032 17.514 15.472 20.455 25.792 10.412 36.522 27.773 75.269 62.274 94.406 51.523 28.577 132.69 23.231 166.12-28.306 13.082-20.169 16.696-44.643 23.26-67.479 3.995-13.902 7.565-30.476 21.775-38.119 5.735-3.085 1.71-15.393 2.557-22.547 0.92199-7.796 2.7-14.69-8.578-16.221-19.674-2.672-38.757-10.795-58.892-13.545-19.081-2.606-37.776-6.373-57.243-6.245zm-331.41 12.977c14.23-0.089 28.4 0.935 42.231 3.812 82.408 17.14 84.074 50.525 50.149 119.55-27.644 56.244-84.909 70.336-142.61 56.855-26.599-6.214-44.788-24.472-53.366-49.474-9.0536-26.388-15.902-54.425-14.352-82.159 2.0761-37.141 44.798-42.36 75.389-45.744 14.036-1.552 28.33-2.749 42.56-2.838zm300.89 0c14.23 0.089 28.524 1.286 42.561 2.838 30.59 3.384 73.312 8.603 75.388 45.744 1.55 27.734-5.298 55.771-14.352 82.159-8.578 25.002-26.767 43.26-53.366 49.474-57.702 13.481-114.97-0.61099-142.61-56.855-33.925-69.023-32.259-102.41 50.149-119.55 13.832-2.877 28.001-3.901 42.231-3.812z"/>
    </g>
    <path id="path3938" fill-rule="evenodd" fill="#808000" transform="translate(0 116.36)" d="m192 376c0 4.4183-3.5817 8-8 8s-8-3.5817-8-8 3.5817-8 8-8 8 3.5817 8 8z"/>
    <path id="path3940" fill-rule="evenodd" fill="#ff0" transform="matrix(.875 0 0 .875 23 163.36)" d="m192 376c0 4.4183-3.5817 8-8 8s-8-3.5817-8-8 3.5817-8 8-8 8 3.5817 8 8z"/>
    <path id="path3944" fill-rule="evenodd" fill="#333" transform="matrix(2 0 0 .66667 -181 243.36)" d="m181 373.5c0 0.82843-0.22386 1.5-0.5 1.5s-0.5-0.67157-0.5-1.5 0.22386-1.5 0.5-1.5 0.5 0.67157 0.5 1.5z"/>
    <path id="path3946" fill-rule="evenodd" fill="#333" transform="matrix(2 0 0 .66667 -173 243.36)" d="m181 373.5c0 0.82843-0.22386 1.5-0.5 1.5s-0.5-0.67157-0.5-1.5 0.22386-1.5 0.5-1.5 0.5 0.67157 0.5 1.5z"/>
    <path id="path75-7" style="block-progression:tb;color:#000000;text-transform:none;text-indent:0" fill="#333" d="m188 494.36c-1 0-2.2259 0.0384-3.3438 1.1562l0.6875 0.6875c0.88-0.89 1.65-0.85 2.65-0.85v-1z"/>
    <path id="path3968" fill-rule="evenodd" fill="#808000" transform="translate(24 116.36)" d="m192 376c0 4.4183-3.5817 8-8 8s-8-3.5817-8-8 3.5817-8 8-8 8 3.5817 8 8z"/>
    <path id="path3970" fill-rule="evenodd" fill="#ff0" transform="matrix(.875 0 0 .875 47 163.36)" d="m192 376c0 4.4183-3.5817 8-8 8s-8-3.5817-8-8 3.5817-8 8-8 8 3.5817 8 8z"/>
    <path id="path3972" fill-rule="evenodd" fill="#333" transform="matrix(2 0 0 .66667 -157 243.36)" d="m181 373.5c0 0.82843-0.22386 1.5-0.5 1.5s-0.5-0.67157-0.5-1.5 0.22386-1.5 0.5-1.5 0.5 0.67157 0.5 1.5z"/>
    <path id="path3974" fill-rule="evenodd" fill="#333" transform="matrix(2 0 0 .66667 -149 243.36)" d="m181 373.5c0 0.82843-0.22386 1.5-0.5 1.5s-0.5-0.67157-0.5-1.5 0.22386-1.5 0.5-1.5 0.5 0.67157 0.5 1.5z"/>
    <path id="path3783-4" fill-rule="evenodd" fill="#808000" transform="translate(48 116.36)" d="m192 376c0 4.4183-3.5817 8-8 8s-8-3.5817-8-8 3.5817-8 8-8 8 3.5817 8 8z"/>
    <path id="path3785-0" fill-rule="evenodd" fill="#ff0" transform="matrix(.875 0 0 .875 71 163.36)" d="m192 376c0 4.4183-3.5817 8-8 8s-8-3.5817-8-8 3.5817-8 8-8 8 3.5817 8 8z"/>
    <path id="path3787-9" fill-rule="evenodd" fill="#333" d="m229.16 496.52-0.6875-0.6875c0.90482-0.90482 2.1505-1.4688 3.5312-1.4688s2.6264 0.56393 3.5312 1.4688l-0.6875 0.6875c-0.72386-0.72386-1.7392-1.1562-2.8438-1.1562s-2.1199 0.43239-2.8438 1.1562z"/>
    <path id="path3789-4" fill-rule="evenodd" fill="#333" transform="matrix(2 0 0 .66667 -133 243.36)" d="m181 373.5c0 0.82843-0.22386 1.5-0.5 1.5s-0.5-0.67157-0.5-1.5 0.22386-1.5 0.5-1.5 0.5 0.67157 0.5 1.5z"/>
    <path id="path3791-8" fill-rule="evenodd" fill="#333" transform="matrix(2 0 0 .66667 -125 243.36)" d="m181 373.5c0 0.82843-0.22386 1.5-0.5 1.5s-0.5-0.67157-0.5-1.5 0.22386-1.5 0.5-1.5 0.5 0.67157 0.5 1.5z"/>
    <path id="path4008" d="m237 493.36v1c0 0.55228 0.44772 1 1 1s1-0.44772 1-1-0.44772-1-1-1h-1z" fill="#0080ff"/>
    <path id="path4013" fill="#0080ff" d="m227 494.36v1c0 0.55228-0.44772 1-1 1s-1-0.44772-1-1 0.44772-1 1-1h1z"/>
    <path id="path4015" fill-rule="evenodd" fill="#808000" transform="translate(72 116.36)" d="m192 376c0 4.4183-3.5817 8-8 8s-8-3.5817-8-8 3.5817-8 8-8 8 3.5817 8 8z"/>
    <path id="path4017" fill-rule="evenodd" fill="#ff0" transform="matrix(.875 0 0 .875 95 163.36)" d="m192 376c0 4.4183-3.5817 8-8 8s-8-3.5817-8-8 3.5817-8 8-8 8 3.5817 8 8z"/>
    <rect id="rect3903-8" fill-rule="evenodd" height="1" width="4" y="491.36" x="250" fill="#333"/>
    <rect id="rect4048" fill-rule="evenodd" height="1" width="4" y="491.36" x="258" fill="#333"/>
    <path id="path4052" fill-rule="evenodd" fill="#fff" transform="translate(0 92.362)" d="m251 400v4.875c0.57548 0.58981 1.2472 1.0794 2 1.4375v-6.3125h-2z"/>
    <path id="path4057" fill-rule="evenodd" fill="#fff" d="m261 492.36v4.875c-0.57548 0.58981-1.2472 1.0794-2 1.4375v-6.3125h2z"/>
    <rect id="rect4059" fill-rule="evenodd" height="1" width="4" y="496.36" x="254" fill="#333"/>
    <path id="path3783-2" fill-rule="evenodd" fill="#808000" transform="translate(96 116.36)" d="m192 376c0 4.4183-3.5817 8-8 8s-8-3.5817-8-8 3.5817-8 8-8 8 3.5817 8 8z"/>
    <path id="path3785-4" fill-rule="evenodd" fill="#ff0" transform="matrix(.875 0 0 .875 119 163.36)" d="m192 376c0 4.4183-3.5817 8-8 8s-8-3.5817-8-8 3.5817-8 8-8 8 3.5817 8 8z"/>
    <path id="path3787-5" fill-rule="evenodd" fill="#333" d="m277.16 495.52-0.6875-0.6875c0.90482-0.90482 2.1505-1.4688 3.5312-1.4688s2.6264 0.56393 3.5312 1.4688l-0.6875 0.6875c-0.72386-0.72386-1.7392-1.1562-2.8438-1.1562s-2.1199 0.43239-2.8438 1.1562z"/>
    <path id="path3789-5" fill-rule="evenodd" fill="#333" transform="matrix(2 0 0 .66667 -85 243.36)" d="m181 373.5c0 0.82843-0.22386 1.5-0.5 1.5s-0.5-0.67157-0.5-1.5 0.22386-1.5 0.5-1.5 0.5 0.67157 0.5 1.5z"/>
    <path id="path3791-1" fill-rule="evenodd" fill="#333" transform="matrix(2 0 0 .66667 -77 243.36)" d="m181 373.5c0 0.82843-0.22386 1.5-0.5 1.5s-0.5-0.67157-0.5-1.5 0.22386-1.5 0.5-1.5 0.5 0.67157 0.5 1.5z"/>
    <rect id="rect4091" height="1" width="4" y="491.36" x="274" fill="#333"/>
    <rect id="rect4093" height="1" width="4" y="491.36" x="282" fill="#333"/>
    <path id="path4095" fill-rule="evenodd" fill="#808000" transform="translate(120 116.36)" d="m192 376c0 4.4183-3.5817 8-8 8s-8-3.5817-8-8 3.5817-8 8-8 8 3.5817 8 8z"/>
    <path id="path4097" fill-rule="evenodd" fill="#ff0" transform="matrix(.875 0 0 .875 143 163.36)" d="m192 376c0 4.4183-3.5817 8-8 8s-8-3.5817-8-8 3.5817-8 8-8 8 3.5817 8 8z"/>
    <path id="path4099" fill-rule="evenodd" fill="#333" d="m301.16 496.52-0.6875-0.6875c0.90482-0.90482 2.1505-1.4688 3.5312-1.4688s2.6264 0.56393 3.5312 1.4688l-0.6875 0.6875c-0.72386-0.72386-1.7392-1.1562-2.8438-1.1562s-2.1199 0.43239-2.8438 1.1562z"/>
    <path id="path4101" fill-rule="evenodd" fill="#333" transform="matrix(2 0 0 .66667 -61 243.36)" d="m181 373.5c0 0.82843-0.22386 1.5-0.5 1.5s-0.5-0.67157-0.5-1.5 0.22386-1.5 0.5-1.5 0.5 0.67157 0.5 1.5z"/>
    <path id="path4103" fill-rule="evenodd" fill="#333" transform="matrix(2 0 0 .66667 -53 243.36)" d="m181 373.5c0 0.82843-0.22386 1.5-0.5 1.5s-0.5-0.67157-0.5-1.5 0.22386-1.5 0.5-1.5 0.5 0.67157 0.5 1.5z"/>
    <rect id="rect4105" transform="rotate(15)" height="1" width="4" y="396.49" x="414.89" fill="#333"/>
    <rect id="rect4107" transform="rotate(-15)" height="1" width="4" y="553.85" x="168.39" fill="#333"/>
    <path id="path4149" fill-rule="evenodd" fill="#808000" transform="translate(96 164.36)" d="m192 376c0 4.4183-3.5817 8-8 8s-8-3.5817-8-8 3.5817-8 8-8 8 3.5817 8 8z"/>
    <path id="path4151" fill-rule="evenodd" fill="#ff0" transform="matrix(.875 0 0 .875 119 211.36)" d="m192 376c0 4.4183-3.5817 8-8 8s-8-3.5817-8-8 3.5817-8 8-8 8 3.5817 8 8z"/>
    <rect id="rect4153" fill-rule="evenodd" height="2" width="2" y="538.36" x="275" fill="#333"/>
    <rect id="rect4161" fill-rule="evenodd" height="2" width="2" y="538.36" x="283" fill="#333"/>
    <path id="path4165" fill-rule="evenodd" fill="#333" transform="translate(0 92.362)" d="m273.09 449c0.0484 0.33661 0.093 0.68065 0.1875 1h13.438c0.0945-0.31935 0.13912-0.66339 0.1875-1h-13.812z"/>
    <path id="path4168" fill-rule="evenodd" fill="#808000" transform="translate(120 164.36)" d="m192 376c0 4.4183-3.5817 8-8 8s-8-3.5817-8-8 3.5817-8 8-8 8 3.5817 8 8z"/>
    <path id="path4170" fill-rule="evenodd" fill="#ff0" transform="matrix(.875 0 0 .875 143 211.36)" d="m192 376c0 4.4183-3.5817 8-8 8s-8-3.5817-8-8 3.5817-8 8-8 8 3.5817 8 8z"/>
    <path id="path4179" transform="translate(-1 92.362)" fill="#333" d="m310 447c0 0.55228-0.44772 1-1 1s-1-0.44772-1-1 0.44772-1 1-1 1 0.44772 1 1z"/>
    <path id="path3857-2-1" fill-rule="evenodd" fill="#fff" d="m300 541.36c0 2.2091 1.7909 4 4 4s4-1.7909 4-4h-8z"/>
    <path id="path4199" transform="translate(-9 92.362)" fill="#333" d="m310 447c0 0.55228-0.44772 1-1 1s-1-0.44772-1-1 0.44772-1 1-1 1 0.44772 1 1z"/>
    <path id="path4203" fill-rule="evenodd" fill="#e5e5e5" transform="translate(0 92.362)" d="m300.16 450c0.0916 0.35536 0.2266 0.69011 0.40625 1h6.875c0.17965-0.30989 0.31461-0.64464 0.40625-1h-7.6875z"/>
  </g>
  <metadata>
    <rdf:RDF>
      <cc:Work>
        <dc:format>image/svg+xml</dc:format>
        <dc:type rdf:resource="http://purl.org/dc/dcmitype/StillImage"/>
        <cc:license rdf:resource="http://creativecommons.org/licenses/publicdomain/"/>
        <dc:publisher>
          <cc:Agent rdf:about="http://openclipart.org/">
            <dc:title>Openclipart</dc:title>
          </cc:Agent>
        </dc:publisher>
        <dc:title>Emoticons &amp; Smileys</dc:title>
        <dc:date>2013-08-13T20:26:27</dc:date>
        <dc:description>On the company app there is an internal chat and forum where customers and others partners comunicate with us without using any e-mail service (and so we can have a control about it).&#xD;\n&#xD;\nThe fact it's that the "plain text it's too grey and white" so my work was make possible insert emoticons and smileys on all conversations. I just create an PHP array where every :-) or :) or : ) will be replaced with the 16x16px emoticon. In fact they are hard to see so i expanded the size to 24x24 doesnt matter if the font and line height will be affected.</dc:description>
        <dc:source>http://openclipart.org/detail/181813/emoticons--smileys-by-nanozero87-181813</dc:source>
        <dc:creator>
          <cc:Agent>
            <dc:title>nanozero87</dc:title>
          </cc:Agent>
        </dc:creator>
        <dc:subject>
          <rdf:Bag>
            <rdf:li>16x16</rdf:li>
            <rdf:li>chat</rdf:li>
            <rdf:li>emo</rdf:li>
            <rdf:li>emoticons</rdf:li>
            <rdf:li>happy</rdf:li>
            <rdf:li>sad</rdf:li>
            <rdf:li>small</rdf:li>
            <rdf:li>smile</rdf:li>
            <rdf:li>smileys</rdf:li>
          </rdf:Bag>
        </dc:subject>
      </cc:Work>
      <cc:License rdf:about="http://creativecommons.org/licenses/publicdomain/">
        <cc:permits rdf:resource="http://creativecommons.org/ns#Reproduction"/>
        <cc:permits rdf:resource="http://creativecommons.org/ns#Distribution"/>
        <cc:permits rdf:resource="http://creativecommons.org/ns#DerivativeWorks"/>
      </cc:License>
    </rdf:RDF>
  </metadata>
</svg>
